<svg width="56" height="56" viewBox="0 0 56 56" fill="none" xmlns="http://www.w3.org/2000/svg">
<g clip-path="url(#clip0_3323_152)">
<rect opacity="0.01" width="56" height="56" fill="white"/>
<rect x="4" y="4" width="48" height="48" rx="24" fill="url(#paint0_linear_3323_152)"/>
<path fill-rule="evenodd" clip-rule="evenodd" d="M19.4202 16.0002C21.1565 15.9757 23.0508 17.9524 25.1753 23.3586C25.583 24.396 25.9695 25.4842 26.3157 26.5658C26.8585 26.5071 27.4205 26.4776 28 26.4776C28.5796 26.4776 29.1415 26.5071 29.6843 26.5658C30.0305 25.4842 30.417 24.396 30.8247 23.3586C32.9492 17.9524 34.8435 15.9757 36.5799 16.0002C38.3162 16.0247 39.237 18.0411 37.1125 23.4473C36.4874 25.0379 35.6683 26.7447 34.7793 28.3611C36.5953 29.6389 37.8369 31.5558 38.3254 34.0775C38.6359 35.68 37.8884 37.2785 36.4469 38.0445C34.7087 38.968 31.895 40 28 40C24.1051 40 21.2914 38.968 19.5531 38.0445C18.1116 37.2785 17.3642 35.68 17.6746 34.0775C18.1631 31.5558 19.4047 29.6389 21.2207 28.3611C20.3317 26.7447 19.5126 25.0379 18.8875 23.4473C16.763 18.0411 17.6838 16.0247 19.4202 16.0002ZM26.2775 34.7717C25.8043 34.2984 26.1394 33.4892 26.8087 33.4892H29.1914C29.8607 33.4892 30.1958 34.2984 29.7226 34.7717L28.5313 35.963C28.2379 36.2564 27.7622 36.2564 27.4688 35.963L26.2775 34.7717Z" fill="white"/>
</g>
<defs>
<linearGradient id="paint0_linear_3323_152" x1="28" y1="4" x2="28" y2="52" gradientUnits="userSpaceOnUse">
<stop stop-color="#000033"/>
<stop offset="1" stop-color="#011B8F"/>
</linearGradient>
<clipPath id="clip0_3323_152">
<rect width="56" height="56" fill="white"/>
</clipPath>
</defs>
</svg>
