<svg width="20" height="20" viewBox="0 0 20 20" fill="none" xmlns="http://www.w3.org/2000/svg">
<g clip-path="url(#clip0_3323_153)">
<rect opacity="0.01" width="20" height="20" fill="white"/>
<g clip-path="url(#clip1_3323_153)">
<path d="M8.52677 12.1005V13.5C8.52677 13.9322 9.18481 14.2857 9.99999 14.2857C10.8152 14.2857 11.4732 13.9322 11.4732 13.5V12.1005C11.0556 12.4306 10.5315 12.5965 9.99999 12.567C9.46843 12.5965 8.94442 12.4306 8.52677 12.1005Z" fill="white"/>
<path d="M12.4553 7.9018C13.269 7.9018 13.9286 7.57201 13.9286 7.1652C13.9286 6.75838 13.269 6.42859 12.4553 6.42859C11.6417 6.42859 10.9821 6.75838 10.9821 7.1652C10.9821 7.57201 11.6417 7.9018 12.4553 7.9018Z" fill="white"/>
<path d="M10.9821 7.68085V7.90183H9.01784V7.68085C8.60368 8.01979 8.07932 8.19458 7.54463 8.17192C7.00993 8.19458 6.48557 8.01979 6.07141 7.68085V9.0804C6.07141 9.49781 6.69016 9.83665 7.46114 9.86612L8.66918 11.2706C8.58526 11.3547 8.53466 11.4663 8.52677 11.5849C8.52677 11.9925 9.1848 12.3215 9.99998 12.3215C10.8152 12.3215 11.4732 11.9925 11.4732 11.5849C11.4653 11.4663 11.4147 11.3547 11.3308 11.2706L12.5388 9.86612C13.3098 9.83665 13.9286 9.49781 13.9286 9.0804V7.68085C13.5144 8.01979 12.99 8.19458 12.4553 8.17192C11.9206 8.19458 11.3963 8.01979 10.9821 7.68085V7.68085ZM9.99998 10.8483C9.68977 10.846 9.3818 10.9009 9.0915 11.0103L8.07007 9.8121C8.62007 9.69915 9.01784 9.41433 9.01784 9.0804V8.3929H10.9821V9.0804C10.9821 9.41433 11.3799 9.69915 11.9299 9.8121L10.9085 11.0103C10.6188 10.8985 10.3104 10.8435 9.99998 10.8483V10.8483Z" fill="white"/>
<path d="M7.54464 7.9018C8.35827 7.9018 9.01785 7.57201 9.01785 7.1652C9.01785 6.75838 8.35827 6.42859 7.54464 6.42859C6.73101 6.42859 6.07143 6.75838 6.07143 7.1652C6.07143 7.57201 6.73101 7.9018 7.54464 7.9018Z" fill="white"/>
</g>
<rect x="1" y="1" width="17.14" height="17.14" rx="8.57" fill="url(#paint0_linear_3323_153)"/>
<path fill-rule="evenodd" clip-rule="evenodd" d="M6.50628 5.71511C7.1263 5.70636 7.80273 6.41221 8.56136 8.34266C8.70694 8.71308 8.84496 9.10168 8.96858 9.48791C9.16239 9.46693 9.36306 9.45639 9.57001 9.45639C9.77695 9.45639 9.97762 9.46693 10.1714 9.4879C10.2951 9.10168 10.4331 8.71308 10.5786 8.34266C11.3373 6.41221 12.0137 5.70636 12.6337 5.71511C13.2537 5.72385 13.5825 6.44387 12.8239 8.37432C12.6007 8.9423 12.3082 9.55179 11.9908 10.129C12.6392 10.5853 13.0826 11.2697 13.257 12.1702C13.3679 12.7424 13.101 13.3132 12.5863 13.5867C11.9656 13.9165 10.9608 14.285 9.57001 14.285C8.17919 14.285 7.17447 13.9165 6.55376 13.5867C6.03901 13.3132 5.77213 12.7424 5.88298 12.1702C6.05741 11.2697 6.50077 10.5853 7.14923 10.129C6.83177 9.55179 6.5393 8.94231 6.31609 8.37432C5.55746 6.44387 5.88627 5.72385 6.50628 5.71511ZM8.95493 12.4181C8.78594 12.2491 8.90563 11.9601 9.14462 11.9601H9.99542C10.2344 11.9601 10.3541 12.2491 10.1851 12.4181L9.75971 12.8435C9.65494 12.9482 9.48509 12.9482 9.38033 12.8435L8.95493 12.4181Z" fill="white"/>
<rect x="12" y="12" width="8" height="8" rx="4" fill="#9A32A6"/>
<path d="M15.1532 17.3559C15.3708 16.9985 15.2814 16.5344 14.9467 16.2833V16.2833C14.5093 15.9552 14.5142 15.2974 14.9566 14.976L17.6765 12.9999L16.6011 15.0084C16.4118 15.3619 16.509 15.8006 16.8297 16.0412V16.0412C17.2765 16.3762 17.2595 17.0517 16.7966 17.3639L14 19.2499L15.1532 17.3559Z" fill="white"/>
</g>
<defs>
<linearGradient id="paint0_linear_3323_153" x1="9.57" y1="1" x2="9.57" y2="18.14" gradientUnits="userSpaceOnUse">
<stop stop-color="#000033"/>
<stop offset="1" stop-color="#011B8F"/>
</linearGradient>
<clipPath id="clip0_3323_153">
<rect width="20" height="20" fill="white"/>
</clipPath>
<clipPath id="clip1_3323_153">
<rect width="7.85714" height="7.85714" fill="white" transform="translate(6.07143 6.42859)"/>
</clipPath>
</defs>
</svg>
