<svg width="20" height="20" viewBox="0 0 20 20" fill="none" xmlns="http://www.w3.org/2000/svg">
<g clip-path="url(#clip0_3355_1255)">
<rect opacity="0.01" width="20" height="20" fill="white"/>
<g clip-path="url(#clip1_3355_1255)">
<path fill-rule="evenodd" clip-rule="evenodd" d="M7.13106 8.97004C6.07709 8.10394 4.91663 7.14835 4.29798 6.6383C4.07013 6.45167 3.91461 6.32306 3.86586 6.28386C3.56753 6.03611 3.33385 5.59988 3.83937 5.29998C4.06059 5.16896 7.82257 3.01326 9.21057 2.21149C9.69785 1.92985 10.2987 1.92932 10.7873 2.21149C11.4515 2.59504 13.4444 3.74409 13.4444 3.74409C13.654 3.86479 13.654 4.16681 13.4444 4.28752L7.22376 7.85139C6.81074 8.08987 6.76354 8.66722 7.13106 8.97004Z" fill="#EDB716"/>
<path fill-rule="evenodd" clip-rule="evenodd" d="M8.68576 11.4976L6.15262 15.3546C5.97006 15.6328 5.60179 15.7201 5.31326 15.5536L3.63484 14.5856C3.14813 14.3045 2.84636 13.7852 2.84636 13.2219V6.78579C2.84636 6.28552 3.08508 5.81937 3.47931 5.52582C3.02864 5.87284 3.20775 6.26166 3.50608 6.5097C3.54635 6.54198 7.27042 9.60744 8.56068 10.6697C8.80816 10.8732 8.86166 11.2298 8.68576 11.4976Z" fill="#327D8C"/>
<path fill-rule="evenodd" clip-rule="evenodd" d="M12.869 11.0301C13.923 11.8962 15.0834 12.8517 15.7021 13.3618C15.9299 13.5484 16.0854 13.6771 16.1342 13.7163C16.4325 13.964 16.6662 14.4002 16.1607 14.7001C15.9394 14.8312 12.1775 16.9868 10.7895 17.7886C10.3022 18.0703 9.7013 18.0708 9.21275 17.7886C8.54854 17.4051 6.55561 16.256 6.55561 16.256C6.34607 16.1353 6.34607 15.8333 6.55561 15.7126L12.7763 12.149C13.1893 11.9102 13.2365 11.3329 12.869 11.0301Z" fill="#327D8C"/>
<path fill-rule="evenodd" clip-rule="evenodd" d="M11.3142 8.50232L13.8473 4.64539C14.0299 4.36719 14.3982 4.27984 14.6867 4.44633L16.3651 5.41433C16.8518 5.69544 17.1536 6.21478 17.1536 6.77804V13.2142C17.1536 13.7147 16.9148 14.1806 16.5206 14.4741C16.9713 14.1271 16.7922 13.7383 16.4939 13.4903C16.4536 13.458 12.7295 10.3925 11.4392 9.33053C11.1918 9.12672 11.1383 8.77017 11.3142 8.50232Z" fill="#327D8C"/>
</g>
<rect x="12" y="12" width="8" height="8" rx="4" fill="#9A32A6"/>
<path d="M15.1532 17.3559C15.3708 16.9985 15.2814 16.5344 14.9467 16.2833C14.5093 15.9552 14.5142 15.2974 14.9566 14.976L17.6765 12.9999L16.6011 15.0084C16.4118 15.3619 16.509 15.8006 16.8297 16.0412C17.2765 16.3762 17.2595 17.0517 16.7966 17.3639L14 19.2499L15.1532 17.3559Z" fill="white"/>
</g>
<defs>
<clipPath id="clip0_3355_1255">
<rect width="20" height="20" fill="white"/>
</clipPath>
<clipPath id="clip1_3355_1255">
<rect width="17.1429" height="17.1429" fill="white" transform="translate(1.42857 1.42859)"/>
</clipPath>
</defs>
</svg>
