<svg width="56" height="56" viewBox="0 0 56 56" fill="none" xmlns="http://www.w3.org/2000/svg">
<g clip-path="url(#clip0_3354_1042)">
<path fill-rule="evenodd" clip-rule="evenodd" d="M20.1105 25.1674C17.2121 22.7857 14.0209 20.1578 12.3196 18.7551C11.693 18.2419 11.2653 17.8882 11.1312 17.7804C10.3108 17.0991 9.66821 15.8995 11.0584 15.0748C11.6667 14.7145 22.0122 8.78629 25.8292 6.58143C27.1692 5.80692 28.8216 5.80546 30.1651 6.58143C31.9917 7.63618 37.4723 10.7961 37.4723 10.7961C38.0485 11.128 38.0485 11.9586 37.4723 12.2905L20.3655 22.0911C19.2296 22.747 19.0999 24.3347 20.1105 25.1674Z" fill="#EDB716"/>
<path fill-rule="evenodd" clip-rule="evenodd" d="M24.386 32.1183L17.4198 42.7248C16.9178 43.4899 15.905 43.7301 15.1116 43.2722L10.4959 40.6103C9.15749 39.8372 8.32761 38.4091 8.32761 36.8601V19.1607C8.32761 17.785 8.98408 16.5031 10.0682 15.6958C8.82888 16.6501 9.32142 17.7194 10.1418 18.4015C10.2526 18.4903 20.4938 26.9203 24.042 29.8414C24.7226 30.4012 24.8697 31.3817 24.386 32.1183Z" fill="#327D8C"/>
<path fill-rule="evenodd" clip-rule="evenodd" d="M35.8898 30.8326C38.7883 33.2144 41.9795 35.8421 43.6808 37.2449C44.3074 37.758 44.7351 38.1118 44.8692 38.2196C45.6895 38.901 46.3321 40.1006 44.942 40.9253C44.3335 41.2856 33.9882 47.2137 30.1712 49.4186C28.8311 50.1931 27.1787 50.1945 25.8352 49.4186C24.0086 48.3639 18.5281 45.2039 18.5281 45.2039C17.9518 44.872 17.9518 44.0414 18.5281 43.7095L35.6349 33.9096C36.7707 33.253 36.9005 31.6654 35.8898 30.8326Z" fill="#327D8C"/>
<path fill-rule="evenodd" clip-rule="evenodd" d="M31.6142 23.8814L38.5803 13.2749C39.0824 12.5098 40.0951 12.2696 40.8885 12.7275L45.5042 15.3895C46.8426 16.1625 47.6724 17.5907 47.6724 19.1397V36.839C47.6724 38.2156 47.016 39.4967 45.9319 40.3039C47.1712 39.3497 46.6787 38.2804 45.8583 37.5983C45.7475 37.5095 35.5063 29.0795 31.9581 26.159C31.2775 25.5985 31.1304 24.618 31.6142 23.8814Z" fill="#327D8C"/>
</g>
<defs>
<clipPath id="clip0_3354_1042">
<rect width="56" height="56" fill="white"/>
</clipPath>
</defs>
</svg>
